<svg width="238" height="65" viewBox="0 0 238 65" fill="none" xmlns="http://www.w3.org/2000/svg">
<g id="surface1">
<path id="Vector" d="M158.408 0.539551H148.393V56.5698C157.495 56.8831 166.559 57.3429 175.585 57.9446V48.0729C169.875 47.6919 164.15 47.3695 158.408 47.1018V0.539551ZM238 0.545412H226.998L219.747 17.3596L213.232 0.545412H202.395L214.04 30.5899L201.328 60.0645C204.845 60.4077 208.352 60.7737 211.855 61.1605L219.248 44.0227L226.57 62.9144C230.383 63.4048 234.187 63.9166 237.983 64.4591L238 64.4526L224.953 30.7931L238 0.545412ZM114.014 56.0801L124.03 56.0781V33.2867H137.607V23.415H124.03V10.5064H141.973V0.546063H114.014V56.0801ZM76.6146 10.5057H87.097V56.6669C90.4297 56.5412 93.7689 56.4376 97.112 56.3503V10.5057H107.594V0.545412H76.6146V10.5057ZM42.3744 59.5363C51.6055 58.6975 60.8789 58.0058 70.194 57.4692V47.5961C64.2422 47.9407 58.3073 48.3477 52.39 48.8133V33.8683C56.2728 33.8299 61.3854 33.7113 65.9147 33.7673V23.8949C62.2962 23.8865 56.4805 23.9457 52.39 23.9978V10.5064H70.194V0.546063H42.3744V59.5363ZM22.7285 36.7149L9.68425 0.545412H0.166016V64.4604C3.49805 63.9857 6.83659 63.5318 10.1816 63.0954V28.3391L21.7799 61.6685C25.4277 61.2452 29.082 60.8447 32.7441 60.4676V0.545412H22.7285V36.7149ZM183.842 58.5392C187.185 58.7952 190.523 59.0693 193.858 59.3663V0.545412H183.842V58.5392Z" fill="#ED1C24"/>
</g>
</svg>
